<?xml version="1.0" standalone="no"?>
<!DOCTYPE svg PUBLIC "-//W3C//DTD SVG 20010904//EN"
 "http://www.w3.org/TR/2001/REC-SVG-20010904/DTD/svg10.dtd">
<svg version="1.0" xmlns="http://www.w3.org/2000/svg"
 width="500.000000pt" height="500.000000pt" viewBox="0 0 500.000000 500.000000"
 preserveAspectRatio="xMidYMid meet">
<metadata>
Created by potrace 1.14, written by Peter Selinger 2001-2017
</metadata>
<g transform="translate(0.000000,500.000000) scale(0.100000,-0.100000)"
fill="#000000" stroke="none">
<path d="M1398 3623 l-1068 -3 0 -1090 0 -1089 183 -4 c100 -3 785 -3 1522 -1
737 2 1631 4 1988 4 l647 0 0 1090 0 1090 -1074 0 c-590 0 -1086 1 -1102 3
-16 1 -509 1 -1096 0z m1067 -1093 l0 -1065 -1057 -3 -1058 -2 0 1070 0 1070
1058 -2 1057 -3 0 -1065z m1467 786 c96 -21 174 -63 244 -131 233 -230 194
-682 -74 -854 -105 -67 -141 -74 -414 -79 l-248 -4 0 -254 0 -254 -255 0 -255
0 0 795 0 795 468 0 c364 0 482 -3 534 -14z"/>
<path d="M640 2526 l0 -836 295 0 295 0 2 288 3 287 60 3 60 3 142 -291 141
-290 331 0 c182 0 331 1 331 3 0 1 -81 155 -180 342 -99 187 -176 341 -170
343 6 2 37 21 69 43 141 94 220 263 208 444 -17 237 -156 405 -392 472 -53 15
-131 17 -627 21 l-568 3 0 -835z m1172 731 c189 -55 299 -173 330 -354 32
-192 -65 -376 -240 -455 -37 -17 -69 -32 -71 -33 -2 -2 69 -140 157 -307 89
-167 164 -311 168 -320 6 -17 -9 -18 -230 -18 l-236 0 -142 290 -141 290 -129
0 -128 0 0 -290 0 -290 -215 0 -215 0 0 748 c0 412 3 752 8 756 4 4 237 6 517
4 435 -4 518 -7 567 -21z"/>
<path d="M1150 2804 l0 -185 218 3 219 3 41 29 c112 77 107 250 -9 315 -34 19
-53 21 -253 21 l-216 0 0 -186z m431 93 c47 -32 61 -86 34 -137 -28 -53 -58
-61 -228 -58 l-152 3 -3 94 c-1 52 0 101 3 109 8 22 311 13 346 -11z"/>
<path d="M3440 2785 l0 -168 133 5 c160 6 189 18 219 85 24 53 20 138 -6 179
-34 51 -60 59 -208 62 l-138 4 0 -167z"/>
</g>
</svg>
